# xmcd
# Track frame offsets:
# 150
# 24300
# 42565
# 60146
# 75469
# 91276
# 110631
# 127413
# 146524
# 168448
# 186403
# 199863
# 216209
# 230377
# 251025
# 268219
# 283460
# 301425
#
# Disc length: 4272 seconds
# Revision: 0
# Processed by: cddbd v1.5.1PL0 Copyright (c) Steve Scherf et al.
# Submitted via: VisiTrax 2.9.9.202 - For more info visit www.synapsa.com
#
DISCID=1310ae12
DTITLE=Various Artist - CMC country 2003
DYEAR=1900
DGENRE=
TTITLE0=Keith Urban - Somebody like you
TTITLE1=Alan Jackson - Drive
TTITLE2=Alison Krauss - New favorite
TTITLE3=Toby Keith - Beer for my horses
TTITLE4=Kenny Chesney - No shoes,No shirt,No problems
TTITLE5=Jennifer Hanson - Beautiful goodbye
TTITLE6=Chris Cagle - What a beautiful day
TTITLE7=Mindy Smith - Jolene
TTITLE8=Montgomery Gentry - Hell yeah
TTITLE9=Terri Clark - Three Mississippi
TTITLE10=Tracy Byrd - The truth about men
TTITLE11=Patty Loveless - Lovin' all night
TTITLE12=Dwight Yoakam - The back of your hand
TTITLE13=Kathleen Edwards - Six o'clock news
TTITLE14=Buddy Jewell - Help pour out the rain (Lacey's song)
TTITLE15=Darryl Worley - Tennessee river run
TTITLE16=Kevin Welch and the Danes - Millionare
TTITLE17=Jessica Andrews - Good time
EXTD=
EXTT0=
EXTT1=
EXTT2=
EXTT3=
EXTT4=
EXTT5=
EXTT6=
EXTT7=
EXTT8=
EXTT9=
EXTT10=
EXTT11=
EXTT12=
EXTT13=
EXTT14=
EXTT15=
EXTT16=
EXTT17=
PLAYORDER=
